<?xml version="1.0" encoding="UTF-8"?>
<svg xmlns="http://www.w3.org/2000/svg" viewBox="0 0 1024 1024" role="img" aria-label="TimelineForVideo icon">
<ns0:defs xmlns:ns0="http://www.w3.org/2000/svg"><ns0:linearGradient id="iconGradient" x1="554" y1="95" x2="1191" y2="559" gradientUnits="userSpaceOnUse"><ns0:stop offset="0" stop-color="#DA5B33" /><ns0:stop offset="1" stop-color="#D43A57" /></ns0:linearGradient></ns0:defs>
<rect x="0" y="0" width="1024" height="1024" fill="#FFFFFF"/>
<rect x="12" y="12" width="1000" height="1000" fill="none" stroke="#D9D9D9" stroke-width="24"/>
<g transform="translate(82.000 205.236) scale(1.325115562404) translate(-542 -95)">
<ns0:path xmlns:ns0="http://www.w3.org/2000/svg" fill="url(#iconGradient)" fill-rule="evenodd" d="M595 168H998A53 53 0 0 1 1051 221V505A53 53 0 0 1 998 558H595A53 53 0 0 1 542 505V221A53 53 0 0 1 595 168ZM578 211L590 202L655 267L574 268L573 222ZM641 200L689 199L757 267L708 268ZM742 200L790 199L858 267L810 268ZM843 200L892 199L960 267L911 268ZM945 200L997 199L1007 203L1015 211L1020 222L1020 267L1013 268ZM574 299L573 365L592 366L657 300ZM711 299L759 300L693 366L645 365ZM812 299L860 300L795 366L746 365ZM913 299L961 300L896 366L847 365ZM1015 299L1020 300L1018 367L949 366Z" /><ns0:path xmlns:ns0="http://www.w3.org/2000/svg" d="M656 115H810A184 184 0 0 1 939 168" fill="none" stroke="url(#iconGradient)" stroke-width="40" stroke-linecap="round" stroke-linejoin="round" /><ns0:path xmlns:ns0="http://www.w3.org/2000/svg" fill="url(#iconGradient)" d="M1076 293L1166 254A27 27 0 0 1 1191 281V451A27 27 0 0 1 1168 478L1076 437V333L1151 299L1158 300V412A7.5 7.5 0 0 0 1173 412V302A21 21 0 0 0 1151 283L1076 315Z" />
</g>
</svg>
