<?xml version="1.0" encoding="UTF-8"?><svg xmlns="http://www.w3.org/2000/svg" viewBox="0 0 1577 815" role="img" aria-label="VIDEO2TIMELINE logo"><defs><linearGradient id="iconGradient" x1="554" y1="95" x2="1191" y2="559" gradientUnits="userSpaceOnUse"><stop offset="0" stop-color="#DA5B33"/><stop offset="1" stop-color="#D43A57"/></linearGradient></defs><path fill="url(#iconGradient)" fill-rule="evenodd" d="M595 168H998A53 53 0 0 1 1051 221V505A53 53 0 0 1 998 558H595A53 53 0 0 1 542 505V221A53 53 0 0 1 595 168ZM578 211L590 202L655 267L574 268L573 222ZM641 200L689 199L757 267L708 268ZM742 200L790 199L858 267L810 268ZM843 200L892 199L960 267L911 268ZM945 200L997 199L1007 203L1015 211L1020 222L1020 267L1013 268ZM574 299L573 365L592 366L657 300ZM711 299L759 300L693 366L645 365ZM812 299L860 300L795 366L746 365ZM913 299L961 300L896 366L847 365ZM1015 299L1020 300L1018 367L949 366Z"/><path d="M656 115H810A184 184 0 0 1 939 168" fill="none" stroke="url(#iconGradient)" stroke-width="40" stroke-linecap="round" stroke-linejoin="round"/><path fill="url(#iconGradient)" d="M1076 293L1166 254A27 27 0 0 1 1191 281V451A27 27 0 0 1 1168 478L1076 437V333L1151 299L1158 300V412A7.5 7.5 0 0 0 1173 412V302A21 21 0 0 0 1151 283L1076 315Z"/><path fill="#DA5B33" fill-rule="evenodd" d="M204 631L181 631L157 693L133 631L110 631L145 723L170 722ZM253 631L230 632L231 723L253 723ZM279 631L279 723L333 723L351 717L361 706L366 689L366 665L359 645L349 636L337 632ZM303 650L329 651L340 659L343 685L340 695L334 701L322 705L302 704ZM468 631L392 632L393 723L468 723L468 705L415 703L417 686L455 686L455 668L417 668L415 652L468 650ZM512 636L500 648L494 668L495 692L501 708L513 719L535 725L556 724L574 717L588 697L590 680L588 659L581 644L574 637L554 630L528 630ZM534 649L545 648L557 652L566 666L565 692L560 700L552 705L532 705L523 699L518 690L518 664L524 654ZM689 637L668 629L642 630L631 633L621 640L616 662L638 662L644 650L660 648L673 653L674 666L666 672L640 672L627 677L621 683L616 697L616 723L697 723L697 705L639 704L641 696L648 691L681 689L693 681L697 669L697 651ZM723 631L724 650L752 651L752 723L775 723L775 651L803 650L804 631ZM830 631L830 723L853 723L853 631ZM879 631L879 723L902 724L903 677L923 723L949 722L968 677L969 723L992 723L991 631L963 632L936 696L908 632ZM1018 631L1018 723L1093 723L1093 705L1041 703L1041 688L1044 686L1080 686L1080 668L1044 668L1041 666L1041 653L1043 650L1089 652L1094 649L1094 632ZM1120 631L1120 723L1195 723L1195 705L1143 704L1143 632ZM1222 631L1222 723L1244 723L1244 631ZM1271 631L1271 723L1293 723L1294 663L1331 723L1359 723L1359 631L1337 631L1336 691L1299 631ZM1386 631L1385 722L1461 723L1461 705L1408 703L1410 686L1448 686L1448 668L1410 668L1408 652L1463 651L1462 632Z"/></svg>